<?xml version="1.0" encoding="utf-8" ?>
<svg baseProfile="full" height="200mm" version="1.1" viewBox="0,0,200,200" width="200mm" xmlns="http://www.w3.org/2000/svg" xmlns:ev="http://www.w3.org/2001/xml-events" xmlns:xlink="http://www.w3.org/1999/xlink"><defs /><rect fill="#1a1a1a" height="200" width="200" x="0" y="0" /><text alignment-baseline="middle" fill="#e1ed5e" style="dominant-baseline: central; font-size:9.0px; font-family:Arial;" text-anchor="middle" x="100.0" y="100.0">2023</text><line stroke="#e1ed5e" stroke-width="0.3" x1="100.0" x2="100.0" y1="15.0" y2="10.0" /><path d="M 100.0 14.0 a86.0,86.0 0 0,1 42.46469731375804,11.215312516191453" fill="none" id="id1" stroke="none" /><text fill="#e1ed5e" style="font-size:6.75px; font-family:Arial;" text-anchor="middle"><textPath startOffset="22.20632615414155" xlink:href="#id1">January</textPath></text><line stroke="#e1ed5e" stroke-width="0.3" x1="143.23703022742887" x2="145.7803849466894" y1="26.81831364943548" y2="22.513508569990506" /><path d="M 143.74570117128098 25.957352633546492 a86.0,86.0 0 0,1 28.547481713284135,27.462654790039103" fill="none" id="id2" stroke="none" /><text fill="#e1ed5e" style="font-size:6.75px; font-family:Arial;" text-anchor="middle"><textPath startOffset="19.985693538727396" xlink:href="#id2">February</textPath></text><line stroke="#e1ed5e" stroke-width="0.3" x1="172.23445277983987" x2="176.4835382374775" y1="55.19839476539836" y2="52.563006222186495" /><path d="M 173.08426987136738 54.67131705675599 a86.0,86.0 0 0,1 12.851231095245387,41.99856678651699" fill="none" id="id3" stroke="none" /><text fill="#e1ed5e" style="font-size:6.75px; font-family:Arial;" text-anchor="middle"><textPath startOffset="22.20632615414155" xlink:href="#id3">March</textPath></text><line stroke="#e1ed5e" stroke-width="0.3" x1="184.98032266829074" x2="189.97916517819016" y1="98.17113171792111" y2="98.06355123074" /><path d="M 185.9800911702706 98.14961562048488 a86.0,86.0 0 0,1 -9.607161424134198,41.387399972396054" fill="none" id="id4" stroke="none" /><text fill="#e1ed5e" style="font-size:6.75px; font-family:Arial;" text-anchor="middle"><textPath startOffset="21.466115282336823" xlink:href="#id4">April</textPath></text><line stroke="#e1ed5e" stroke-width="0.3" x1="174.80103733775053" x2="179.2010983576182" y1="140.37084112569926" y2="142.7455964860345" /><path d="M 175.68104954172406 140.8457921977663 a86.0,86.0 0 0,1 -30.038265399797805,32.042727171017184" fill="none" id="id5" stroke="none" /><text fill="#e1ed5e" style="font-size:6.75px; font-family:Arial;" text-anchor="middle"><textPath startOffset="22.206326154141568" xlink:href="#id5">May</textPath></text><line stroke="#e1ed5e" stroke-width="0.3" x1="143.8653032363475" x2="146.44561519142675" y1="172.8068346515853" y2="177.08958963109032" /><path d="M 144.38136562736335 173.6633856474863 a86.0,86.0 0 0,1 -40.68145358897372,12.25698825130547" fill="none" id="id6" stroke="none" /><text fill="#e1ed5e" style="font-size:6.75px; font-family:Arial;" text-anchor="middle"><textPath startOffset="21.466115282336833" xlink:href="#id6">June</textPath></text><line stroke="#e1ed5e" stroke-width="0.3" x1="102.19456741930631" x2="102.32365962044197" y1="184.97166512339345" y2="189.96999836594603" /><path d="M 102.22038585953345 185.97133177190398 a86.0,86.0 0 0,1 -42.740103519485714,-10.115201625700543" fill="none" id="id7" stroke="none" /><text fill="#e1ed5e" style="font-size:6.75px; font-family:Arial;" text-anchor="middle"><textPath startOffset="22.20632615414155" xlink:href="#id7">July</textPath></text><line stroke="#e1ed5e" stroke-width="0.3" x1="58.666819895761336" x2="56.23545636021788" y1="174.27360380694188" y2="178.64263932499728" /><path d="M 58.180547188652646 175.14741091055294 a86.0,86.0 0 0,1 -31.652253787137756,-30.449443065178592" fill="none" id="id8" stroke="none" /><text fill="#e1ed5e" style="font-size:6.75px; font-family:Arial;" text-anchor="middle"><textPath startOffset="22.20632615414155" xlink:href="#id8">August</textPath></text><line stroke="#e1ed5e" stroke-width="0.3" x1="26.63291911575756" x2="22.317208475507996" y1="142.92168965132927" y2="145.44649492493687" /><path d="M 25.769776987707644 143.4266507060508 a86.0,86.0 0 0,1 -11.730757126820373,-40.83630448921669" fill="none" id="id9" stroke="none" /><text fill="#e1ed5e" style="font-size:6.75px; font-family:Arial;" text-anchor="middle"><textPath startOffset="21.46611528233685" xlink:href="#id9">September</textPath></text><line stroke="#e1ed5e" stroke-width="0.3" x1="15.007084014347285" x2="10.007500721073583" y1="101.09737516637583" y2="101.16192664675087" /><path d="M 14.007167355692545 101.11028546245083 a86.0,86.0 0 0,1 10.666146001902534,-42.60595125391555" fill="none" id="id10" stroke="none" /><text fill="#e1ed5e" style="font-size:6.75px; font-family:Arial;" text-anchor="middle"><textPath startOffset="22.20632615414155" xlink:href="#id10">October</textPath></text><line stroke="#e1ed5e" stroke-width="0.3" x1="26.266209847984243" x2="21.928928074336255" y1="57.71137044288968" y2="55.22380399835378" /><path d="M 25.398753493254645 57.2138571539825 a86.0,86.0 0 0,1 29.58750427330803,-30.4925239686951" fill="none" id="id11" stroke="none" /><text fill="#e1ed5e" style="font-size:6.75px; font-family:Arial;" text-anchor="middle"><textPath startOffset="21.46611528233685" xlink:href="#id11">November</textPath></text><path d="M 83.17141714833178 87.43820079747577 l -7.549899608488385 -5.6356690112884875 a30.42134540832945,30.42134540832945 0 0,0 0.31685143674068966,-0.4169393498428116 l 7.451772231523587 5.764793137012325" fill="#ff720a" stroke="none" /><path d="M 83.39014120810768 87.1503855733568 l -7.438299933123625 -5.754370782310268 a30.40431225531208,30.40431225531208 0 0,0 0.323800017535584,-0.4111931398635842 l 7.33814583499407 5.881556316126898" fill="#ff720a" stroke="none" /><path d="M 83.6137871275137 86.86637796730984 l -1.0655742508009198 -0.8540624710963381 a22.365602866321364,22.365602866321364 0 0,0 0.24336066574166615,-0.2983314009102603 l 1.0507150929828613 0.8722780416146806" fill="#ff0000" stroke="none" /><path d="M 84.07557802195018 86.31012108654704 l -12.88033584646594 -11.072944333287548 a37.9856747798208,37.9856747798208 0 0,0 0.43051903167063127,-0.49215767593921106 l 12.687824951217465 11.293017565429702" fill="#ffd614" stroke="none" /><path d="M 84.31358615837235 86.03803664274999 l -7.538699522718148 -6.709949613734498 a31.09234434176156,31.09234434176156 0 0,0 0.3592740515563892,-0.3967193811252476 l 7.4220818305457135 6.838721782129302" fill="#ff7b0b" stroke="none" /><path d="M 84.5562425177563 85.77008943001954 l -7.41350070495923 -6.830815114996914 a31.080675961348092,31.080675961348092 0 0,0 0.3659123215663091,-0.3903297521481252 l 7.2948210614224624 6.957414284023091" fill="#ff7b0b" stroke="none" /><path d="M 85.05521093208273 85.24692304244772 l -7.169589247626882 -7.077617585874668 a31.074506472853614,31.074506472853614 0 0,0 0.3790560040863901,-0.3774282171412383 l 7.046697443373179 7.199981653666018" fill="#ff7b0b" stroke="none" /><path d="M 85.31137513191541 84.99185889309783 l -7.059268100189462 -7.212825755343307 a31.09247846107666,31.09247846107666 0 0,0 0.38571960174905484,-0.3710619512773537 l 6.9340652548279795 7.333270793382969" fill="#ff7b0b" stroke="none" /><path d="M 85.57189188830299 84.74124197986013 l -30.109323909778166 -31.84276719668127 a64.82388856600906,64.82388856600906 0 0,0 0.8173740301923794,-0.7596600804239416 l 29.55674199579093 32.35633186317986" fill="#35ff66" stroke="none" /><path d="M 85.83668400450813 84.49514656593479 l -9.058798186735787 -9.916839970160979 a34.43151292974064,34.43151292974064 0 0,0 0.4410332694546418,-0.39596402390980184 l 8.886753929685174 10.071303002840057" fill="#ffa80f" stroke="none" /><path d="M 86.10567301691215 84.25364557470405 l -15.60883353028341 -17.689394040636273 a44.591319286996175,44.591319286996175 0 0,0 0.579912658276209,-0.5028945427028982 l 15.30202707336043 17.955453576758853" fill="#d8ff1c" stroke="none" /><path d="M 86.37877921826538 84.01681056812373 l -23.595576465842534 -27.68713424817243 a57.3775841918034,57.3775841918034 0 0,0 0.7572269050596384,-0.6341557563074535 l 23.115492023823784 28.0891911618737" fill="#4cff2c" stroke="none" /><path d="M 87.51073957382395 83.11751280151077 l -9.438912691720637 -12.759148039834866 a36.8710091520466,36.8710091520466 0 0,0 0.5134809198704099,-0.3730657256051668 l 9.217886455496446 12.9197330002567" fill="#ffc712" stroke="none" /><path d="M 89.00827224532344 82.1063720568725 l -5.276032130250457 -8.588945983903338 a31.080005364772603,31.080005364772603 0 0,0 0.45826422109964954,-0.27609906565917297 l 5.127405842933161 8.67849165902113" fill="#ff7b0b" stroke="none" /><line stroke="#e1ed5e" stroke-width="0.3" x1="56.76296977257108" x2="54.21961505331056" y1="26.818313649435495" y2="22.513508569990535" /><path d="M 56.25429882871898 25.957352633546506 a86.0,86.0 0 0,1 42.26535254187918,-11.944610805530505" fill="none" id="id12" stroke="none" /><text fill="#e1ed5e" style="font-size:6.75px; font-family:Arial;" text-anchor="middle"><textPath startOffset="22.20632615414155" xlink:href="#id12">December</textPath></text><path d="M 89.3179101791058 81.91981866633112 l -13.795359885378037 -23.349607845740536 a48.12040082515311,48.12040082515311 0 0,0 0.7167723149136327,-0.41520078924963266 l 13.391390837999083 23.58361279238022" fill="#afff20" stroke="none" /><path d="M 90.26544431104013 81.39251694778311 l -4.678060269489041 -8.942054466901652 a31.09180786450117,31.09180786450117 0 0,0 0.47635538582421005,-0.24400773036272516 l 4.523444396076067 9.021254722576883" fill="#ff7b0b" stroke="none" /><path d="M 90.58718382345135 81.22770947309562 l -10.519074715675385 -20.97853850889469 a44.468063636421704,44.468063636421704 0 0,0 0.6871983024013208,-0.33720522251886564 l 10.15640514626364 21.156498891548388" fill="#d9ff1c" stroke="none" /><path d="M 90.91171255644093 81.06846463323043 l -6.184716094787542 -12.883194134102691 a35.29081538156945,35.29081538156945 0 0,0 0.5499011301834499,-0.2581859539902719 l 5.962036753304484 12.98774507073297" fill="#ffb310" stroke="none" /><path d="M 91.23893434514133 80.91482961587045 l -11.422392450889015 -24.882624409818852 a48.37911698397593,48.37911698397593 0 0,0 0.7598237082906208,-0.340910749580521 l 10.99238662413162 25.075555489915903" fill="#acff20" stroke="none" /><path d="M 91.56875222667455 80.76684994638697 l -9.814853996050353 -22.38939771851647 a45.446195801426775,45.446195801426775 0 0,0 0.7191670957836198,-0.30790981861536415 l 9.428003142476424 22.55502706509462" fill="#ceff1d" stroke="none" /><path d="M 93.59665428221793 80.00007090966166 l -4.991662706662183 -15.590740306101898 a37.37033536215408,37.37033536215408 0 0,0 0.6143231616057664,-0.19087319668283068 l 4.722554172345688 15.674353637667254" fill="#ffce13" stroke="none" /><path d="M 93.94186890950719 79.89281104454417 l -3.880597878252599 -12.879865693335246 a34.451764946320345,34.451764946320345 0 0,0 0.5692904501460233,-0.16619149336964023 l 3.6583172103831543 12.944755515623585" fill="#ffa80f" stroke="none" /><path d="M 94.63758080256005 79.69619591428918 l -3.4302605543316407 -12.988044331062646 a34.433390600152,34.433390600152 0 0,0 0.5743671742700324,-0.14641898154003827 l 3.206184491376607 13.045166308771549" fill="#ffa80f" stroke="none" /><path d="M 95.692805502759 79.44645832069477 l -2.9370798806365057 -14.01547893432253 a35.31991927294558,35.31991927294558 0 0,0 0.5961221812019519,-0.11957650152279586 l 2.6953912899674175 14.063959391922538" fill="#ffb310" stroke="none" /><path d="M 96.04723909329186 79.375362276772 l -2.526730531249871 -13.183924619070284 a34.423868128780086,34.423868128780086 0 0,0 0.5829188312907054,-0.10652469049497654 l 2.299416578856272 13.225464790915996" fill="#ffa80f" stroke="none" /><path d="M 96.40284397218896 79.31037775812273 l -4.853933335470542 -27.918179339930607 a49.336997132401315,49.336997132401315 0 0,0 0.8379555206636714,-0.13826984078946303 l 4.372648608667985 27.997595443659698" fill="#a1ff22" stroke="none" /><path d="M 97.11714578562143 79.19881850522333 l -8.648562643135707 -62.403544484330034 a84.0,84.0 0 0,0 1.4339410859685713,-0.1861667073434532 l 7.573106828659279 62.54316951483762" fill="#4dd2ff" stroke="none" /><path d="M 97.47563105711357 79.15227682838746 l -0.9685907722764567 -7.9991921719290735 a29.05762021241945,29.05762021241945 0 0,0 0.497069747479528,-0.05585157782322745 l 0.8307543212872107 8.0146797032229" fill="#ff5f08" stroke="none" /><path d="M 97.83486435360386 79.11191278185805 l -1.3841618696782265 -13.353663963728968 a34.425209321931064,34.425209321931064 0 0,0 0.5899413252200926,-0.05602203731085356 l 1.1540954173678972 13.375511545555002" fill="#ffa80f" stroke="none" /><path d="M 98.55514903715128 79.0497635885617 l -0.9239361305056965 -13.397008314961147 a34.42883054343869,34.42883054343869 0 0,0 0.5915823178162968,-0.03568586095190994 l 0.6931917638497768 13.410927445293362" fill="#ffa80f" stroke="none" /><path d="M 98.91598698831166 79.02799685794201 l -0.6930463767670924 -13.408114694595726 a34.426014037821645,34.426014037821645 0 0,0 0.5920605035263383,-0.02549537071419964 l 0.4621450408514299 13.41805779183412" fill="#ffa80f" stroke="none" /><path d="M 99.63851952072746 79.00311137660856 l -0.33498186874168256 -19.457695206610644 a40.460578501312455,40.460578501312455 0 0,0 0.6964623480142136,-0.005994671310368735 l 4.766467034237619e-15 19.460578501312455" fill="#fff517" stroke="none" /></svg>