<?xml version="1.0" encoding="utf-8" ?>
<svg baseProfile="full" height="200mm" version="1.1" viewBox="0,0,200,200" width="200mm" xmlns="http://www.w3.org/2000/svg" xmlns:ev="http://www.w3.org/2001/xml-events" xmlns:xlink="http://www.w3.org/1999/xlink"><defs /><rect fill="#1a1a1a" height="200" width="200" x="0" y="0" /><text alignment-baseline="middle" fill="#e1ed5e" style="dominant-baseline: central; font-size:9.0px; font-family:Arial;" text-anchor="middle" x="100.0" y="100.0">2024</text><line stroke="#e1ed5e" stroke-width="0.3" x1="100.0" x2="100.0" y1="15.0" y2="10.0" /><path d="M 100.0 14.0 a86.0,86.0 0 0,1 42.35913384403234,11.155469271406648" fill="none" id="id13" stroke="none" /><text fill="#e1ed5e" style="font-size:6.75px; font-family:Arial;" text-anchor="middle"><textPath startOffset="22.145653131862478" xlink:href="#id13">January</textPath></text><path d="M 101.08105385017728 79.02784411241856 l 0.7023788405381732 -13.62596186442489 a34.64405265184788,34.64405265184788 0 0,0 0.5936599053232288,0.03571310571665475 l -0.9361830979938643 13.611896780883542" fill="#ff7e0b" stroke="none" /><path d="M 101.80034050326958 79.07731436759882 l 1.766702383932671 -20.531759696516723 a41.60762949853529,41.60762949853529 0 0,0 0.7110950663589967,0.06734144210694992 l -2.1188970136766807 20.49840649890459" fill="#ffdf14" stroke="none" /><path d="M 102.15924093988457 79.11130261209362 l 1.4016617966058984 -13.559806397082768 a34.6320580001125,34.6320580001125 0 0,0 0.5908296683390106,0.06620369669014248 l -1.6342273665457057 13.533746939885654" fill="#ff7e0b" stroke="none" /><path d="M 102.87502721639298 79.19773525538626 l 2.0161006593970927 -14.587500051977267 a35.72616106238344,35.72616106238344 0 0,0 0.6067916535223122,0.08917747704959042 l -2.266217418527087 14.550741501628796" fill="#ff8e0d" stroke="none" /><path d="M 103.23170211078529 79.25015418208739 l 2.101369189239746 -13.492297615463483 a34.65495688069822,34.65495688069822 0 0,0 0.5870260853900079,0.09659491896130179 l -2.332672777682824 13.454236698006515" fill="#ff7e0b" stroke="none" /><path d="M 103.58742460773223 79.30868818359171 l 2.328597975713444 -13.430734323083614 a34.631103880088105,34.631103880088105 0 0,0 0.5848785564310746,0.10658435631155486 l -2.5588112656955726 13.388781792840692" fill="#ff7e0b" stroke="none" /><path d="M 103.94208987418118 79.37332000966035 l 2.560755845582708 -13.39895665651143 a34.64146289749593,34.64146289749593 0 0,0 0.5831370895530367,0.11664374961729126 l -2.7903894206667017 13.35302351023128" fill="#ff7e0b" stroke="none" /><path d="M 104.29559338865022 79.4440306129975 l 3.347313030085152 -16.018104589914635 a37.36411253856506,37.36411253856506 0 0,0 0.6267164145597556,0.13658992560539407 l -3.6217918612640414 15.958283206175523" fill="#ffa50f" stroke="none" /><path d="M 104.9986988182912 79.60360301121754 l 3.2523457006743595 -13.270680324443122 a34.663407658057224,34.663407658057224 0 0,0 0.5767243406902629,0.14660107214047427 l -3.479675334590017 13.212894020467381" fill="#ff7f0b" stroke="none" /><path d="M 106.72888874123014 80.10723608172694 l 5.525405780015281 -16.334880388349426 a38.244083806787444,38.244083806787444 0 0,0 0.620089989982748,0.21569948719305204 l -5.805001542043047 16.237622468587784" fill="#ffb110" stroke="none" /><path d="M 107.06938296918511 80.22567764915836 l 6.887786918953975 -19.26636587846452 a41.460558711916335,41.460558711916335 0 0,0 0.6681287069806466,0.24534611575018486 l -7.217504777588746 19.145288913705613" fill="#ffdd14" stroke="none" /><path d="M 107.74402155503746 80.48000691201159 l 6.228846837902123 -15.700763015425212 a37.89119570061834,37.89119570061834 0 0,0 0.6025521792562613,0.24505272569485004 l -6.497453478348824 15.591523033151068" fill="#ffac10" stroke="none" /><path d="M 108.07796709384702 80.6158196554323 l 5.77757648714672 -13.864080316282951 a36.01975742417883,36.01975742417883 0 0,0 0.5687089601298666,0.24274803755429905 l -6.014720522447017 13.76285762906925" fill="#ff920d" stroke="none" /><path d="M 109.06512990194946 81.05736502329252 l 5.982908068803707 -12.50197679154873 a34.85982008022397,34.85982008022397 0 0,0 0.5375712116928056,0.2629530176758984 l -6.1966395297585795 12.397430023775609" fill="#ff810b" stroke="none" /><path d="M 109.3889696526874 81.21577127319529 l 6.101024414084616 -12.20613574240092 a34.645960891896685,34.645960891896685 0 0,0 0.5297083295220935,0.2704728473752587 l -6.3096599653202885 12.099604943352826" fill="#ff7e0b" stroke="none" /><path d="M 109.71004243097381 81.37971332152246 l 6.624465454275738 -12.703285977084509 a35.326793680739755,35.326793680739755 0 0,0 0.5353038500767658,0.2850191490566141 l -6.841558120139063 12.587696360305321" fill="#ff880c" stroke="none" /><path d="M 110.02825361518725 81.54914285379988 l 6.512595749868085 -11.982442650810672 a34.637919023119565,34.637919023119565 0 0,0 0.5199907277246103,0.28843009119217566 l -6.717330665748795 11.86887964418535" fill="#ff7e0b" stroke="none" /><line stroke="#e1ed5e" stroke-width="0.3" x1="143.13028292997686" x2="145.6673583964461" y1="26.7553504044142" y2="22.446841604673864" /><path d="M 143.63769802327073 25.89364864446614 a86.0,86.0 0 0,1 29.32050498858742,28.57503671076992" fill="none" id="id14" stroke="none" /><text fill="#e1ed5e" style="font-size:6.75px; font-family:Arial;" text-anchor="middle"><textPath startOffset="20.669276256404974" xlink:href="#id14">February</textPath></text><path d="M 110.65571695917076 81.90426304109057 l 6.923820708402212 -11.758161254655434 a34.64527937759354,34.64527937759354 0 0,0 0.5098914759776384,0.30617518095252094 l -7.1246449409372845 11.637572073166991" fill="#ff7e0b" stroke="none" /><path d="M 111.27062007382361 82.28071324371311 l 7.335512943510488 -11.532644743513229 a34.667905652457996,34.667905652457996 0 0,0 0.4994066456870025,0.3237093540743963 l -7.532405221454498 11.405021547734938" fill="#ff7f0b" stroke="none" /><path d="M 111.8722381534696 82.67804972795209 l 7.847288295241062 -11.449428141808658 a34.88053811503961,34.88053811503961 0 0,0 0.4909932518717356,0.3427514222640618 l -8.042676638286558 11.31303190373947" fill="#ff820b" stroke="none" /><path d="M 112.7482090630111 83.31218511350987 l 12.42594999520969 -16.265967422083023 a41.469145792135976,41.469145792135976 0 0,0 0.5619860236625649,0.4370037311420856 l -12.70334596350748 16.05026263932015" fill="#ffdd14" stroke="none" /><path d="M 113.31354834802062 83.75963576809568 l 10.380457905269456 -12.66247080558283 a37.37351743594847,37.37351743594847 0 0,0 0.49266423090088324,0.41099802362807525 l -10.596296470332232 12.482410598042884" fill="#ffa50f" stroke="none" /><path d="M 113.59037401385872 83.9905735841838 l 8.83324619351847 -10.405541805083134 a34.64923216055179,34.64923216055179 0 0,0 0.450143883040913,0.3888235649631503 l -9.010569556322242 10.252374107655264" fill="#ff7e0b" stroke="none" /><path d="M 113.86319453409587 84.22622945171908 l 11.408283204025121 -12.98053209651764 a38.28129448773923,38.28129448773923 0 0,0 0.48988203082519344,0.4380555327263945 l -11.62943026167369 12.782781033907861" fill="#ffb210" stroke="none" /><path d="M 114.13192950727249 84.46653392183569 l 12.055033691186145 -13.250593757689135 a38.91373976105892,38.91373976105892 0 0,0 0.49025795369581976,0.45377544281458265 l -12.280721416195929 13.041700568742176" fill="#ffbb11" stroke="none" /><path d="M 114.39649973595853 84.71141617570332 l 16.99235241743501 -18.045289415528103 a45.78653890256726,45.78653890256726 0 0,0 0.5675950406350722,0.5437432094091394 l -17.299619943935397 17.750934075813383" fill="#e8ff1a" stroke="none" /><path d="M 114.91283532996326 85.21462403516908 l 12.618766413438916 -12.510914357124816 a38.76953133451318,38.76953133451318 0 0,0 0.46452027604574325,0.47663872522571554 l -12.831673490635474 12.29245293983136" fill="#ffb911" stroke="none" /><path d="M 115.16444852881244 85.47280134310134 l 13.151264523895886 -12.598613920253186 a39.21210672297634,39.21210672297634 0 0,0 0.4614782582616606,0.49007391823871127 l -13.365598615893804 12.370998542069978" fill="#ffbf11" stroke="none" /><path d="M 115.8921839302757 86.27271002978787 l 10.833845156900981 -9.358017413694627 a35.31588945188942,35.31588945188942 0 0,0 0.39235185731941113,0.46218950136755305 l -10.992891577727503 9.17066112987752" fill="#ff880c" stroke="none" /><path d="M 117.01052211995028 87.68569379921539 l 11.517284165129483 -8.337625547925684 a35.218432906539505,35.218432906539505 0 0,0 0.3503142327434141,0.4927608394068905 l -11.658713496402859 8.13868748180929" fill="#ff870c" stroke="none" /><path d="M 117.42321728460499 88.27688183743584 l 11.775785791482052 -7.923274217131362 a35.193216877323096,35.193216877323096 0 0,0 0.3329539099660381,0.5041346563179194 l -11.910064140368814 7.719959682474386" fill="#ff860c" stroke="none" /><path d="M 117.62189284568427 88.57770195909679 l 24.13809599715198 -15.646022197151588 a49.765355707195496,49.765355707195496 0 0,0 0.4585102809184227,0.7208543181371649 l -24.40312396969629 15.229354204335749" fill="#b7ff1f" stroke="none" /><line stroke="#e1ed5e" stroke-width="0.3" x1="172.87174338648825" x2="177.1583165268699" y1="56.24261187166439" y2="53.66864786411523" /><path d="M 173.72905801456457 55.72781907015455 a86.0,86.0 0 0,1 12.242430191666344,42.057860355516425" fill="none" id="id15" stroke="none" /><text fill="#e1ed5e" style="font-size:6.75px; font-family:Arial;" text-anchor="middle"><textPath startOffset="22.145653131862474" xlink:href="#id15">March</textPath></text><path d="M 118.18653347947321 89.5 l 17.78239790925632 -10.266672219746178 a41.53334443949235,41.53334443949235 0 0,0 0.3511874386442241,0.6205145539539103 l -17.956018712921924 9.95990089569315" fill="#ffde14" stroke="none" /><path d="M 118.36410011445183 89.81374322990088 l 17.8974943331679 -9.92743840878827 a41.46641973492339,41.46641973492339 0 0,0 0.33993509486520695,0.6254422868643026 l -18.065274777648444 9.618741288449366" fill="#ffdd14" stroke="none" /><path d="M 118.53625476483649 90.13048839642627 l 12.05522685190121 -6.418729285284617 a34.657546635050174,34.657546635050174 0 0,0 0.2751015891994012,0.5275435707940402 l -12.163636510075555 6.210839471386079" fill="#ff7e0b" stroke="none" /><path d="M 119.16976305983485 91.42560881287824 l 12.773441141952107 -5.713397751183067 a34.99298797505874,34.99298797505874 0 0,0 0.24056199193266994,0.550452915239976 l -12.869637015901747 5.493282766167242" fill="#ff830c" stroke="none" /><path d="M 119.31412917781788 91.75594674310238 l 18.897723295468985 -8.066314346747193 a41.54724733127654,41.54724733127654 0 0,0 0.27435854454755365,0.658360630192929 l -19.033407684553023 7.740721207112987" fill="#ffde14" stroke="none" /><line stroke="#e1ed5e" stroke-width="0.3" x1="184.99686870605535" x2="189.99668451229388" y1="99.2704041080226" y2="99.22748670261217" /><path d="M 185.99683186730306 99.26182062694052 a86.0,86.0 0 0,1 -10.086455211305974,41.156179273409016" fill="none" id="id16" stroke="none" /><text fill="#e1ed5e" style="font-size:6.75px; font-family:Arial;" text-anchor="middle"><textPath startOffset="21.40746469413373" xlink:href="#id16">April</textPath></text><path d="M 119.71291397450082 107.23885506374661 l 7.688576394346217 2.823351749883801 a29.190575198071855,29.190575198071855 0 0,0 -0.17676883271437843,0.4689003301755878 l -7.638976877817399 -2.9549203602535465" fill="#ff2d04" stroke="none" /><path d="M 119.0197475246899 108.90220220490707 l 57.05924257406971 26.70660661472122 a84.0,84.0 0 0,0 -0.6224829681603521,1.300749991739586 l -56.592380347949444 -27.682169108525912" fill="#4dd2ff" stroke="none" /><line stroke="#e1ed5e" stroke-width="0.3" x1="174.33088141563837" x2="178.70328620479359" y1="141.23008692659167" y2="143.65538615756765" /><path d="M 175.20536237346943 141.71514677278685 a86.0,86.0 0 0,1 -30.301960400862466,31.63118572779886" fill="none" id="id17" stroke="none" /><text fill="#e1ed5e" style="font-size:6.75px; font-family:Arial;" text-anchor="middle"><textPath startOffset="22.145653131862474" xlink:href="#id17">May</textPath></text><path d="M 116.57777611688842 112.89097897827484 l 5.501368679577532 4.277897559970468 a27.96889265825195,27.96889265825195 0 0,0 -0.2979800088301776,0.37648800691804474 l -5.427122240105793 -4.371705510803193" fill="#ff1b02" stroke="none" /><path d="M 116.35404254752997 113.17365903436017 l 6.383725776872993 5.142277605611485 a29.19725403824269,29.19725403824269 0 0,0 -0.3177678704732473,0.3876251336443552 l -6.294511087161118 -5.251105020954336" fill="#ff2d04" stroke="none" /><path d="M 115.89218393027572 113.72728997021213 l 3.983137491514151 3.4405392976275135 a26.263334963198226,26.263334963198226 0 0,0 -0.297637292609087,0.33865660246492724 l -3.9234891349464784 -3.5084081779037337" fill="#ff0000" stroke="none" /><line stroke="#e1ed5e" stroke-width="0.3" x1="143.1302829299769" x2="145.6673583964461" y1="173.24464959558577" y2="177.55315839532614" /><path d="M 143.63769802327073 174.10635135553383 a86.0,86.0 0 0,1 -40.685524379131806,11.842963189579606" fill="none" id="id18" stroke="none" /><text fill="#e1ed5e" style="font-size:6.75px; font-family:Arial;" text-anchor="middle"><textPath startOffset="21.407464694133747" xlink:href="#id18">June</textPath></text><line stroke="#e1ed5e" stroke-width="0.3" x1="101.45913802915013" x2="101.54496967792366" y1="184.9874750549273" y2="189.98673829345242" /><path d="M 101.47630435890484 185.9873277026323 a86.0,86.0 0 0,1 -42.54439059252881,-10.42667462771756" fill="none" id="id19" stroke="none" /><text fill="#e1ed5e" style="font-size:6.75px; font-family:Arial;" text-anchor="middle"><textPath startOffset="22.145653131862474" xlink:href="#id19">July</textPath></text><line stroke="#e1ed5e" stroke-width="0.3" x1="58.13341422392154" x2="55.670673884152215" y1="173.97424548756322" y2="178.32567169271397" /><path d="M 57.64086615596767 174.84453072859336 a86.0,86.0 0 0,1 -31.369924170532244,-30.572349798747886" fill="none" id="id20" stroke="none" /><text fill="#e1ed5e" style="font-size:6.75px; font-family:Arial;" text-anchor="middle"><textPath startOffset="22.145653131862474" xlink:href="#id20">August</textPath></text><line stroke="#e1ed5e" stroke-width="0.3" x1="26.387840678322732" x2="22.057713659400548" y1="142.50000000000003" y2="145.00000000000006" /><path d="M 25.521815274538298 143.00000000000003 a86.0,86.0 0 0,1 -11.493303480769221,-40.785679425670985" fill="none" id="id21" stroke="none" /><text fill="#e1ed5e" style="font-size:6.75px; font-family:Arial;" text-anchor="middle"><textPath startOffset="21.40746469413373" xlink:href="#id21">September</textPath></text><line stroke="#e1ed5e" stroke-width="0.3" x1="15.003131293944662" x2="10.003315487706104" y1="100.72959589197737" y2="100.7725132973878" /><path d="M 14.003168132696942 100.73817937305945 a86.0,86.0 0 0,1 10.791469493833604,-42.453326145846276" fill="none" id="id22" stroke="none" /><text fill="#e1ed5e" style="font-size:6.75px; font-family:Arial;" text-anchor="middle"><textPath startOffset="22.145653131862435" xlink:href="#id22">October</textPath></text><line stroke="#e1ed5e" stroke-width="0.3" x1="26.387840678322718" x2="22.05771365940052" y1="57.5" y2="55.0" /><path d="M 25.521815274538284 57.0 a86.0,86.0 0 0,1 29.574782752854787,-30.346332500585742" fill="none" id="id23" stroke="none" /><text fill="#e1ed5e" style="font-size:6.75px; font-family:Arial;" text-anchor="middle"><textPath startOffset="21.40746469413373" xlink:href="#id23">November</textPath></text><line stroke="#e1ed5e" stroke-width="0.3" x1="56.869717070023135" x2="54.33264160355391" y1="26.7553504044142" y2="22.446841604673864" /><path d="M 56.362301976729285 25.89364864446614 a86.0,86.0 0 0,1 42.16139366436587,-11.88097634709845" fill="none" id="id24" stroke="none" /><text fill="#e1ed5e" style="font-size:6.75px; font-family:Arial;" text-anchor="middle"><textPath startOffset="22.145653131862474" xlink:href="#id24">December</textPath></text></svg>